<svg width="20" height="20" viewBox="0 0 20 20" fill="none" xmlns="http://www.w3.org/2000/svg">
  <path d="M10 12C11.1046 12 12 11.1046 12 10C12 8.89543 11.1046 8 10 8C8.89543 8 8 8.89543 8 10C8 11.1046 8.89543 12 10 12Z" stroke="currentColor" stroke-width="1.5"/>
  <path d="M17.8 12.3L16.3 12.8C16.1 13.3 15.8 13.7 15.4 14.1L15.9 15.6C15.8 15.8 15.6 16 15.4 16.1L14.1 15.4C13.7 15.8 13.3 16.1 12.8 16.3L12.3 17.8C12.1 17.9 11.9 17.9 11.7 17.8L11.2 16.3C10.7 16.1 10.3 15.8 9.9 15.4L8.4 15.9C8.2 15.8 8 15.6 7.9 15.4L8.6 14.1C8.2 13.7 7.9 13.3 7.7 12.8L6.2 12.3C6.1 12.1 6.1 11.9 6.2 11.7L7.7 11.2C7.9 10.7 8.2 10.3 8.6 9.9L8.1 8.4C8.2 8.2 8.4 8 8.6 7.9L9.9 8.6C10.3 8.2 10.7 7.9 11.2 7.7L11.7 6.2C11.9 6.1 12.1 6.1 12.3 6.2L12.8 7.7C13.3 7.9 13.7 8.2 14.1 8.6L15.6 8.1C15.8 8.2 16 8.4 16.1 8.6L15.4 9.9C15.8 10.3 16.1 10.7 16.3 11.2L17.8 11.7C17.9 11.9 17.9 12.1 17.8 12.3Z" fill="currentColor"/>
</svg>