<svg width="40" height="40" viewBox="0 0 40 40" fill="none" xmlns="http://www.w3.org/2000/svg">
  <circle cx="20" cy="20" r="18" fill="url(#gradient)" stroke="white" stroke-width="2"/>
  <path d="M20 8C15.6 8 12 11.6 12 16C12 20.4 15.6 24 20 24C24.4 24 28 20.4 28 16C28 11.6 24.4 8 20 8Z" fill="white" opacity="0.9"/>
  <circle cx="20" cy="16" r="4" fill="url(#gradient)"/>
  <path d="M16 26C16 28.2 17.8 30 20 30C22.2 30 24 28.2 24 26C24 23.8 22.2 22 20 22C17.8 22 16 23.8 16 26Z" fill="white" opacity="0.8"/>
  <defs>
    <linearGradient id="gradient" x1="0%" y1="0%" x2="100%" y2="100%">
      <stop offset="0%" style="stop-color:#667eea;stop-opacity:1" />
      <stop offset="100%" style="stop-color:#764ba2;stop-opacity:1" />
    </linearGradient>
  </defs>
</svg>
